<svg xmlns="http://www.w3.org/2000/svg" width="960" height="540" viewBox="0 0 960 540">
  <rect width="960" height="540" fill="#0f172a"/>
  <text x="40" y="48" fill="#e2e8f0" font-size="28" font-family="Arial">EICC Training Reward Curve (Illustrative)</text>
  <text x="40" y="78" fill="#94a3b8" font-size="16" font-family="Arial">Normalized reward improves as curriculum progresses</text>
  <line x1="80" y1="460" x2="900" y2="460" stroke="#64748b" stroke-width="2"/>
  <line x1="80" y1="460" x2="80" y2="100" stroke="#64748b" stroke-width="2"/>
  <text x="900" y="490" fill="#94a3b8" font-size="14" font-family="Arial">iterations</text>
  <text x="20" y="96" fill="#94a3b8" font-size="14" font-family="Arial">reward</text>
  <polyline fill="none" stroke="#22d3ee" stroke-width="4"
    points="80,390 130,380 180,372 230,360 280,340 330,325 380,300 430,285 480,260 530,240 580,220 630,205 680,195 730,188 780,182 830,178 880,175"/>
  <line x1="80" y1="390" x2="900" y2="390" stroke="#334155" stroke-dasharray="6 6"/>
  <text x="84" y="382" fill="#94a3b8" font-size="12" font-family="Arial">~0.25 baseline</text>
  <line x1="80" y1="175" x2="900" y2="175" stroke="#334155" stroke-dasharray="6 6"/>
  <text x="84" y="167" fill="#94a3b8" font-size="12" font-family="Arial">~0.55+ trained plateau</text>
</svg>
